<mxfile host="app.diagrams.net" agent="Mozilla/5.0 (X11; Linux x86_64; rv:134.0) Gecko/20100101 Firefox/134.0" version="26.0.11">
  <diagram name="Page-1" id="wG6jqwOPfG2ZX-8ENBQx">
    <mxGraphModel dx="1509" dy="799" grid="1" gridSize="10" guides="1" tooltips="1" connect="1" arrows="1" fold="1" page="1" pageScale="1" pageWidth="850" pageHeight="1100" math="0" shadow="0">
      <root>
        <mxCell id="0" />
        <mxCell id="1" parent="0" />
        <mxCell id="gZMjplkvzGTa2DHnMmq5-27" value="" style="rounded=0;whiteSpace=wrap;html=1;fillColor=#d5e8d4;strokeColor=#82b366;" vertex="1" parent="1">
          <mxGeometry x="590" y="430" width="190" height="120" as="geometry" />
        </mxCell>
        <mxCell id="gZMjplkvzGTa2DHnMmq5-26" value="" style="rounded=0;whiteSpace=wrap;html=1;fillColor=#d5e8d4;strokeColor=#82b366;" vertex="1" parent="1">
          <mxGeometry x="590" y="90" width="190" height="250" as="geometry" />
        </mxCell>
        <mxCell id="gZMjplkvzGTa2DHnMmq5-11" style="edgeStyle=orthogonalEdgeStyle;rounded=0;orthogonalLoop=1;jettySize=auto;html=1;exitX=0;exitY=0.5;exitDx=0;exitDy=0;entryX=1;entryY=0.5;entryDx=0;entryDy=0;" edge="1" parent="1" source="gZMjplkvzGTa2DHnMmq5-5" target="gZMjplkvzGTa2DHnMmq5-9">
          <mxGeometry relative="1" as="geometry" />
        </mxCell>
        <mxCell id="gZMjplkvzGTa2DHnMmq5-5" value="ADC" style="rounded=0;whiteSpace=wrap;html=1;fillColor=#e1d5e7;strokeColor=#9673a6;" vertex="1" parent="1">
          <mxGeometry x="620" y="130" width="120" height="60" as="geometry" />
        </mxCell>
        <mxCell id="gZMjplkvzGTa2DHnMmq5-7" style="edgeStyle=orthogonalEdgeStyle;rounded=0;orthogonalLoop=1;jettySize=auto;html=1;exitX=1;exitY=0.5;exitDx=0;exitDy=0;entryX=1;entryY=0.5;entryDx=0;entryDy=0;" edge="1" parent="1" source="gZMjplkvzGTa2DHnMmq5-6" target="gZMjplkvzGTa2DHnMmq5-5">
          <mxGeometry relative="1" as="geometry" />
        </mxCell>
        <mxCell id="gZMjplkvzGTa2DHnMmq5-6" value="Detector" style="rounded=0;whiteSpace=wrap;html=1;fillColor=#e1d5e7;strokeColor=#9673a6;" vertex="1" parent="1">
          <mxGeometry x="620" y="240" width="120" height="60" as="geometry" />
        </mxCell>
        <mxCell id="gZMjplkvzGTa2DHnMmq5-8" value="" style="rounded=0;whiteSpace=wrap;html=1;fillColor=#d5e8d4;strokeColor=#82b366;" vertex="1" parent="1">
          <mxGeometry x="350" y="90" width="180" height="460" as="geometry" />
        </mxCell>
        <mxCell id="gZMjplkvzGTa2DHnMmq5-10" style="edgeStyle=orthogonalEdgeStyle;rounded=0;orthogonalLoop=1;jettySize=auto;html=1;exitX=0;exitY=0.5;exitDx=0;exitDy=0;entryX=1;entryY=0.5;entryDx=0;entryDy=0;startArrow=classic;startFill=1;" edge="1" parent="1" source="gZMjplkvzGTa2DHnMmq5-5" target="gZMjplkvzGTa2DHnMmq5-9">
          <mxGeometry relative="1" as="geometry" />
        </mxCell>
        <mxCell id="gZMjplkvzGTa2DHnMmq5-9" value="ADC Driver" style="rounded=1;whiteSpace=wrap;html=1;fillColor=#dae8fc;strokeColor=#6c8ebf;" vertex="1" parent="1">
          <mxGeometry x="380" y="130" width="120" height="60" as="geometry" />
        </mxCell>
        <mxCell id="gZMjplkvzGTa2DHnMmq5-14" style="edgeStyle=orthogonalEdgeStyle;rounded=0;orthogonalLoop=1;jettySize=auto;html=1;exitX=1;exitY=0.5;exitDx=0;exitDy=0;startArrow=none;startFill=0;" edge="1" parent="1" source="gZMjplkvzGTa2DHnMmq5-12" target="gZMjplkvzGTa2DHnMmq5-6">
          <mxGeometry relative="1" as="geometry" />
        </mxCell>
        <mxCell id="gZMjplkvzGTa2DHnMmq5-16" style="edgeStyle=orthogonalEdgeStyle;rounded=0;orthogonalLoop=1;jettySize=auto;html=1;exitX=0.5;exitY=0;exitDx=0;exitDy=0;entryX=0.5;entryY=1;entryDx=0;entryDy=0;startArrow=classic;startFill=1;" edge="1" parent="1" source="gZMjplkvzGTa2DHnMmq5-12" target="gZMjplkvzGTa2DHnMmq5-9">
          <mxGeometry relative="1" as="geometry" />
        </mxCell>
        <mxCell id="gZMjplkvzGTa2DHnMmq5-12" value="Detector driver" style="rounded=1;whiteSpace=wrap;html=1;fillColor=#dae8fc;strokeColor=#6c8ebf;" vertex="1" parent="1">
          <mxGeometry x="380" y="240" width="120" height="60" as="geometry" />
        </mxCell>
        <mxCell id="gZMjplkvzGTa2DHnMmq5-21" style="edgeStyle=orthogonalEdgeStyle;rounded=0;orthogonalLoop=1;jettySize=auto;html=1;exitX=0.5;exitY=0;exitDx=0;exitDy=0;entryX=0.5;entryY=1;entryDx=0;entryDy=0;startArrow=classic;startFill=1;" edge="1" parent="1" source="gZMjplkvzGTa2DHnMmq5-17" target="gZMjplkvzGTa2DHnMmq5-12">
          <mxGeometry relative="1" as="geometry" />
        </mxCell>
        <mxCell id="gZMjplkvzGTa2DHnMmq5-22" style="edgeStyle=orthogonalEdgeStyle;rounded=0;orthogonalLoop=1;jettySize=auto;html=1;exitX=0.5;exitY=1;exitDx=0;exitDy=0;entryX=0.5;entryY=0;entryDx=0;entryDy=0;" edge="1" parent="1" source="gZMjplkvzGTa2DHnMmq5-17" target="gZMjplkvzGTa2DHnMmq5-18">
          <mxGeometry relative="1" as="geometry" />
        </mxCell>
        <mxCell id="gZMjplkvzGTa2DHnMmq5-17" value="Control and data handling logic" style="rounded=1;whiteSpace=wrap;html=1;fillColor=#f5f5f5;fontColor=#333333;strokeColor=#666666;" vertex="1" parent="1">
          <mxGeometry x="380" y="350" width="120" height="60" as="geometry" />
        </mxCell>
        <mxCell id="gZMjplkvzGTa2DHnMmq5-24" style="edgeStyle=orthogonalEdgeStyle;rounded=0;orthogonalLoop=1;jettySize=auto;html=1;exitX=1;exitY=0.5;exitDx=0;exitDy=0;entryX=0;entryY=0.5;entryDx=0;entryDy=0;startArrow=none;startFill=0;" edge="1" parent="1" source="gZMjplkvzGTa2DHnMmq5-18" target="gZMjplkvzGTa2DHnMmq5-23">
          <mxGeometry relative="1" as="geometry" />
        </mxCell>
        <mxCell id="gZMjplkvzGTa2DHnMmq5-18" value="PWM Driver" style="rounded=1;whiteSpace=wrap;html=1;fillColor=#dae8fc;strokeColor=#6c8ebf;" vertex="1" parent="1">
          <mxGeometry x="380" y="460" width="120" height="60" as="geometry" />
        </mxCell>
        <mxCell id="gZMjplkvzGTa2DHnMmq5-19" value="" style="rounded=0;whiteSpace=wrap;html=1;fillColor=#d5e8d4;strokeColor=#82b366;" vertex="1" parent="1">
          <mxGeometry x="40" y="210" width="190" height="230" as="geometry" />
        </mxCell>
        <mxCell id="gZMjplkvzGTa2DHnMmq5-23" value="PWM Servo" style="rounded=0;whiteSpace=wrap;html=1;fillColor=#e1d5e7;strokeColor=#9673a6;" vertex="1" parent="1">
          <mxGeometry x="620" y="460" width="120" height="60" as="geometry" />
        </mxCell>
        <mxCell id="gZMjplkvzGTa2DHnMmq5-29" style="edgeStyle=orthogonalEdgeStyle;rounded=0;orthogonalLoop=1;jettySize=auto;html=1;exitX=1;exitY=0.5;exitDx=0;exitDy=0;entryX=0;entryY=0.5;entryDx=0;entryDy=0;startArrow=classic;startFill=1;" edge="1" parent="1" source="gZMjplkvzGTa2DHnMmq5-28" target="gZMjplkvzGTa2DHnMmq5-17">
          <mxGeometry relative="1" as="geometry" />
        </mxCell>
        <mxCell id="gZMjplkvzGTa2DHnMmq5-28" value="MCU Driver" style="rounded=1;whiteSpace=wrap;html=1;fillColor=#dae8fc;strokeColor=#6c8ebf;" vertex="1" parent="1">
          <mxGeometry x="75" y="350" width="120" height="60" as="geometry" />
        </mxCell>
        <mxCell id="gZMjplkvzGTa2DHnMmq5-33" style="edgeStyle=orthogonalEdgeStyle;rounded=0;orthogonalLoop=1;jettySize=auto;html=1;exitX=0.5;exitY=1;exitDx=0;exitDy=0;entryX=0.5;entryY=0;entryDx=0;entryDy=0;startArrow=classic;startFill=1;" edge="1" parent="1" source="gZMjplkvzGTa2DHnMmq5-32" target="gZMjplkvzGTa2DHnMmq5-28">
          <mxGeometry relative="1" as="geometry" />
        </mxCell>
        <mxCell id="gZMjplkvzGTa2DHnMmq5-32" value="Userspace application" style="rounded=1;whiteSpace=wrap;html=1;fillColor=#f5f5f5;fontColor=#333333;strokeColor=#666666;" vertex="1" parent="1">
          <mxGeometry x="75" y="240" width="120" height="60" as="geometry" />
        </mxCell>
        <mxCell id="gZMjplkvzGTa2DHnMmq5-34" value="Embedded Linux supernode" style="rounded=0;whiteSpace=wrap;html=1;fillColor=#fff2cc;strokeColor=#d6b656;" vertex="1" parent="1">
          <mxGeometry x="40" y="190" width="190" height="20" as="geometry" />
        </mxCell>
        <mxCell id="gZMjplkvzGTa2DHnMmq5-35" value="Zephyr microcontroller" style="rounded=0;whiteSpace=wrap;html=1;fillColor=#fff2cc;strokeColor=#d6b656;" vertex="1" parent="1">
          <mxGeometry x="350" y="70" width="180" height="20" as="geometry" />
        </mxCell>
        <mxCell id="gZMjplkvzGTa2DHnMmq5-36" value="Detector circuit board" style="rounded=0;whiteSpace=wrap;html=1;fillColor=#fff2cc;strokeColor=#d6b656;" vertex="1" parent="1">
          <mxGeometry x="590" y="70" width="190" height="20" as="geometry" />
        </mxCell>
        <mxCell id="gZMjplkvzGTa2DHnMmq5-37" value="Light source circuit board" style="rounded=0;whiteSpace=wrap;html=1;fillColor=#fff2cc;strokeColor=#d6b656;" vertex="1" parent="1">
          <mxGeometry x="590" y="410" width="190" height="20" as="geometry" />
        </mxCell>
      </root>
    </mxGraphModel>
  </diagram>
</mxfile>
